<svg width="30" height="30" viewBox="0 0 30 30" fill="none" xmlns="http://www.w3.org/2000/svg">
<g clip-path="url(#clip0_54_295)" filter="url(#filter0_d_54_295)">
<path fill-rule="evenodd" clip-rule="evenodd" d="M7.37645 20.7148L22.3134 10.9303L20.7607 18.3088C20.6883 18.6561 20.9109 18.9959 21.2579 19.0677C21.6052 19.1401 21.945 18.9176 22.0169 18.5706L23.8502 9.77629C23.9215 9.43427 23.6951 9.0886 23.3531 9.01732L14.5582 7.18431C14.2109 7.11192 13.8711 7.33448 13.7993 7.68148C13.7269 8.02883 13.9494 8.3686 14.2964 8.44046L21.6101 9.85678L6.67324 19.6413C6.37695 19.8354 6.29401 20.2333 6.48809 20.5296C6.68218 20.8259 7.08016 20.9089 7.37645 20.7148Z" fill="white"/>
</g>
<defs>
<filter id="filter0_d_54_295" x="-3.08057" y="0.652832" width="36.4277" height="36.4277" filterUnits="userSpaceOnUse" color-interpolation-filters="sRGB">
<feFlood flood-opacity="0" result="BackgroundImageFix"/>
<feColorMatrix in="SourceAlpha" type="matrix" values="0 0 0 0 0 0 0 0 0 0 0 0 0 0 0 0 0 0 127 0" result="hardAlpha"/>
<feOffset dy="4"/>
<feGaussianBlur stdDeviation="2"/>
<feComposite in2="hardAlpha" operator="out"/>
<feColorMatrix type="matrix" values="0 0 0 0 0 0 0 0 0 0 0 0 0 0 0 0 0 0 0.25 0"/>
<feBlend mode="normal" in2="BackgroundImageFix" result="effect1_dropShadow_54_295"/>
<feBlend mode="normal" in="SourceGraphic" in2="effect1_dropShadow_54_295" result="shape"/>
</filter>
<clipPath id="clip0_54_295">
<rect width="20.5333" height="20.5333" fill="white" transform="translate(29.3472 17.8291) rotate(146.773)"/>
</clipPath>
</defs>
</svg>
