<svg width="22" height="22" viewBox="0 0 22 22" fill="none" xmlns="http://www.w3.org/2000/svg">
<g id="151651305616297319023946 1">
<path id="Vector" d="M20.1025 5.88499L11.165 1.0725C11.1153 1.04602 11.0598 1.03217 11.0034 1.03217C10.9471 1.03217 10.8916 1.04602 10.8419 1.0725L1.90437 5.88499C1.84884 5.91376 1.80221 5.95714 1.7695 6.01043C1.73679 6.06374 1.71924 6.12496 1.71875 6.18749V15.8125C1.71891 15.8747 1.73595 15.9357 1.76803 15.9889C1.80012 16.0422 1.84605 16.0858 1.90094 16.115L10.8384 20.9275C10.8882 20.954 10.9437 20.9678 11 20.9678C11.0563 20.9678 11.1118 20.954 11.1616 20.9275L20.0991 16.115C20.154 16.0858 20.1999 16.0422 20.232 15.9889C20.2641 15.9357 20.2811 15.8747 20.2812 15.8125V6.18749C20.2814 6.12565 20.2649 6.06491 20.2334 6.0117C20.202 5.95845 20.1567 5.91469 20.1025 5.88499ZM11 1.76687L19.2156 6.18749L16.8094 7.48343L8.87906 2.90812L11 1.76687ZM2.78438 6.18749L5.37281 4.81249L13.2997 9.37062L11 10.6081L2.78438 6.18749ZM8.1675 3.28969L16.0978 7.86499L14.0112 8.98905L6.08438 4.4103L8.1675 3.28969ZM14.4684 9.52187L16.3384 8.51812V11.0825L15.6166 10.3675C15.5764 10.3277 15.5272 10.2983 15.473 10.2821C15.4188 10.2658 15.3615 10.2632 15.3061 10.2744C15.2507 10.2857 15.1989 10.3104 15.1553 10.3464C15.1117 10.3824 15.0777 10.4286 15.0562 10.4809L14.4684 11.8972V9.52187ZM2.40625 6.76155L10.6562 11.2062V20.0509L2.40625 15.6062V6.76155ZM11.3438 20.0509V11.2062L13.7809 9.89312V13.6262C13.7849 13.7032 13.8147 13.7766 13.8654 13.8347C13.9161 13.8927 13.9848 13.932 14.0605 13.9463C14.1363 13.9606 14.2146 13.949 14.283 13.9134C14.3514 13.8778 14.4058 13.8203 14.4375 13.75L15.4894 11.2097L16.4312 12.1447C16.4793 12.1932 16.5408 12.2262 16.6077 12.2397C16.6747 12.2531 16.7441 12.2463 16.8071 12.2201C16.8702 12.1939 16.924 12.1496 16.9618 12.0926C16.9995 12.0357 17.0195 11.9689 17.0191 11.9006V8.14687L19.5903 6.77187V15.6062L11.3438 20.0509Z" fill="black"/>
</g>
</svg>
