<svg width="22" height="21" viewBox="0 0 22 21" fill="none" xmlns="http://www.w3.org/2000/svg">
<g clip-path="url(#clip0_54_230)">
<path fill-rule="evenodd" clip-rule="evenodd" d="M21.981 2.93352C21.981 3.89472 21.1911 4.68108 20.2256 4.68108H16.5075C16.7684 4.16082 16.9154 3.57391 16.9154 2.95277C16.9154 2.3163 16.7612 1.71566 16.488 1.18596H20.2256C21.1911 1.18596 21.981 1.97231 21.981 2.93352ZM15.989 18.0472C15.989 19.6781 14.6609 21 13.0228 21C11.3846 21 10.0567 19.6781 10.0567 18.0472C10.0567 16.4166 11.3846 15.0945 13.0228 15.0945C14.6609 15.0945 15.989 16.4164 15.989 18.0472ZM21.998 18.0278C21.998 18.989 21.2079 19.7754 20.2424 19.7754H16.5075C16.7684 19.2551 16.9154 18.6682 16.9154 18.0472C16.9154 17.4108 16.7612 16.8101 16.488 16.2804H20.2424C21.2081 16.2804 21.998 17.0668 21.998 18.0278ZM9.53763 19.7754H1.75742C0.791878 19.7754 0.0019694 18.989 0.0019694 18.0278C0.0019694 17.0666 0.791878 16.2802 1.75742 16.2802H9.55715C9.28411 16.8099 9.12979 17.4106 9.12979 18.0471C9.12979 18.6682 9.27677 19.2551 9.53763 19.7754ZM5.07139 10.4652C5.07139 12.0959 6.39948 13.418 8.03766 13.418C9.67567 13.418 11.0038 12.0959 11.0038 10.4652C11.0038 8.83442 9.67567 7.5123 8.03766 7.5123C6.39948 7.51212 5.07139 8.83424 5.07139 10.4652ZM0 10.4458C0 11.407 0.790267 12.1934 1.75545 12.1934H4.56185C4.30099 11.6729 4.154 11.0939 4.154 10.4652C4.154 9.83644 4.30815 9.22814 4.58136 8.69825H1.75545C0.789909 8.69825 0 9.48461 0 10.4458ZM11.5316 12.1934H20.2445C21.2099 12.1934 22 11.407 22 10.4458C22 9.48444 21.2101 8.69807 20.2445 8.69807H11.5122C11.7853 9.22796 11.9396 9.83626 11.9396 10.4651C11.9396 11.0939 11.7924 11.6729 11.5316 12.1934ZM15.989 2.95277C15.989 4.58359 14.6609 5.90554 13.0228 5.90554C11.3846 5.90554 10.0565 4.58377 10.0565 2.95277C10.0565 1.32195 11.3844 0 13.0226 0C14.6608 0 15.989 1.32195 15.989 2.95277ZM9.53763 4.68108H1.76405C0.798503 4.68108 0.00859375 3.89455 0.00859375 2.93352C0.00859375 1.97231 0.798503 1.18596 1.76405 1.18596H9.55715C9.28411 1.71566 9.12979 2.3163 9.12979 2.95277C9.12979 3.57391 9.27677 4.16082 9.53763 4.68108Z" fill="black" fill-opacity="0.5"/>
</g>
<defs>
<clipPath id="clip0_54_230">
<rect width="22" height="21" fill="white"/>
</clipPath>
</defs>
</svg>
