<svg width="18" height="18" viewBox="0 0 18 18" fill="none" xmlns="http://www.w3.org/2000/svg">
<g clip-path="url(#clip0_172_29)">
<path fill-rule="evenodd" clip-rule="evenodd" d="M3.87269 8.99996C3.87269 8.42836 3.96763 7.88036 4.13707 7.36636L1.17126 5.10156C0.59324 6.27516 0.267578 7.59756 0.267578 8.99996C0.267578 10.4012 0.592839 11.7228 1.17006 12.8956L4.13426 10.6264C3.96642 10.1148 3.87269 9.56876 3.87269 8.99996Z" fill="#FBBC05"/>
<path fill-rule="evenodd" clip-rule="evenodd" d="M9.07996 3.79995C10.3217 3.79995 11.4433 4.23995 12.3246 4.95995L14.8882 2.39995C13.326 1.03995 11.3231 0.199951 9.07996 0.199951C5.59742 0.199951 2.60438 2.19155 1.17114 5.10155L4.13695 7.36635C4.82032 5.29195 6.76828 3.79995 9.07996 3.79995Z" fill="#EB4335"/>
<path fill-rule="evenodd" clip-rule="evenodd" d="M9.07996 14.1999C6.76828 14.1999 4.82032 12.7079 4.13695 10.6335L1.17114 12.8979C2.60438 15.8083 5.59742 17.7999 9.07996 17.7999C11.2294 17.7999 13.2815 17.0367 14.8217 15.6067L12.0065 13.4303C11.2122 13.9307 10.212 14.1999 9.07996 14.1999Z" fill="#34A853"/>
<path fill-rule="evenodd" clip-rule="evenodd" d="M17.492 8.9999C17.492 8.4799 17.4119 7.9199 17.2917 7.3999H9.08008V10.7999H13.8068C13.5704 11.9591 12.9271 12.8503 12.0066 13.4303L14.8218 15.6067C16.4397 14.1051 17.492 11.8683 17.492 8.9999Z" fill="#4285F4"/>
</g>
<defs>
<clipPath id="clip0_172_29">
<rect width="18" height="18" fill="white"/>
</clipPath>
</defs>
</svg>
