<svg width="26" height="20" viewBox="0 0 26 20" fill="none" xmlns="http://www.w3.org/2000/svg">
<path d="M23.2429 7.68686C23.2408 7.54911 23.1586 7.41752 23.0144 7.32083L20.8308 5.99137L12.8581 1.157C12.7185 1.07206 12.5377 1.0251 12.3503 1.0251C12.1629 1.0251 11.9821 1.07206 11.8425 1.157L3.89014 5.99137L1.68624 7.32083C1.54285 7.4108 1.4541 7.53396 1.43741 7.66614C1.42456 7.79173 1.47853 7.91627 1.58946 8.01705C1.70039 8.11784 1.86089 8.18816 2.0417 8.21519C2.0417 8.23245 3.56514 8.21519 3.61592 8.21519V15.3563C3.61592 15.4936 3.69618 15.6254 3.83903 15.7225C3.98188 15.8196 4.17562 15.8742 4.37764 15.8742H9.53194C9.63409 15.8765 9.73587 15.8649 9.83124 15.8399C9.92661 15.8149 10.0136 15.7771 10.087 15.7288C10.1605 15.6804 10.2189 15.6225 10.2587 15.5585C10.2986 15.4945 10.3191 15.4257 10.319 15.3563V11.0606H14.4323V15.3563C14.4323 15.4936 14.5126 15.6254 14.6554 15.7225C14.7983 15.8196 14.992 15.8742 15.194 15.8742H20.3026C20.5047 15.8742 20.6984 15.8196 20.8413 15.7225C20.9841 15.6254 21.0644 15.4936 21.0644 15.3563V8.22555C21.1355 8.22555 22.6335 8.22555 22.6386 8.22555C22.8172 8.19942 22.9761 8.1308 23.0869 8.03204C23.1977 7.93328 23.253 7.81088 23.2429 7.68686Z" fill="black"/>
</svg>
