<svg width="24" height="24" viewBox="0 0 24 24" fill="none" xmlns="http://www.w3.org/2000/svg">
<g clip-path="url(#clip0_54_196)">
<path d="M11.2499 19.125H8.89944L9.80956 17.55L9.96331 18.1241C9.98461 18.2039 10.0316 18.2744 10.097 18.3247C10.1625 18.375 10.2427 18.4023 10.3252 18.4024C10.3581 18.4024 10.3909 18.398 10.4227 18.3893C10.5187 18.3635 10.6005 18.3007 10.6502 18.2146C10.7 18.1286 10.7135 18.0263 10.6878 17.9303L10.2997 16.4813C10.2869 16.4337 10.2649 16.3891 10.235 16.35C10.205 16.3109 10.1676 16.2782 10.1249 16.2535C10.0823 16.2289 10.0352 16.2129 9.98634 16.2065C9.9375 16.2001 9.88788 16.2034 9.84031 16.2161L8.39169 16.6043C8.34412 16.617 8.29952 16.639 8.26046 16.669C8.22139 16.699 8.18861 16.7364 8.16399 16.779C8.13937 16.8217 8.12339 16.8688 8.11697 16.9176C8.11055 16.9664 8.11381 17.0161 8.12656 17.0636C8.13932 17.1112 8.16132 17.1558 8.19131 17.1949C8.22129 17.2339 8.25869 17.2667 8.30134 17.2913C8.344 17.3159 8.39109 17.3319 8.43992 17.3383C8.48875 17.3448 8.53837 17.3415 8.58594 17.3288L9.16006 17.175L8.24994 18.75C8.18411 18.864 8.14946 18.9933 8.14946 19.125C8.14946 19.2566 8.18411 19.386 8.24993 19.5C8.31576 19.614 8.41043 19.7087 8.52445 19.7745C8.63846 19.8403 8.76779 19.875 8.89944 19.875H11.2499C11.3494 19.875 11.4448 19.8355 11.5151 19.7652C11.5854 19.6948 11.6249 19.5995 11.6249 19.5C11.6249 19.4005 11.5854 19.3052 11.5151 19.2348C11.4448 19.1645 11.3494 19.125 11.2499 19.125Z" fill="black" fill-opacity="0.7"/>
<path d="M14.9497 16.7145C14.9252 16.6715 14.8925 16.6338 14.8534 16.6035C14.8144 16.5732 14.7697 16.5509 14.7219 16.5379C14.6742 16.525 14.6244 16.5216 14.5753 16.528C14.5263 16.5343 14.479 16.5504 14.4362 16.5751C14.3933 16.5998 14.3558 16.6328 14.3258 16.6721C14.2957 16.7113 14.2738 16.7562 14.2611 16.804C14.2485 16.8518 14.2454 16.9016 14.2521 16.9506C14.2588 16.9996 14.2752 17.0468 14.3002 17.0895L15.4754 19.125H13.6552L14.0755 18.7042C14.1114 18.6697 14.1399 18.6283 14.1596 18.5825C14.1792 18.5368 14.1896 18.4876 14.19 18.4378C14.1904 18.388 14.181 18.3386 14.1621 18.2925C14.1432 18.2464 14.1154 18.2046 14.0802 18.1693C14.045 18.1341 14.0031 18.1063 13.957 18.0874C13.9109 18.0686 13.8616 18.0591 13.8118 18.0595C13.762 18.06 13.7128 18.0703 13.667 18.09C13.6213 18.1096 13.5799 18.1382 13.5453 18.174L12.4848 19.2349C12.4145 19.3052 12.375 19.4006 12.375 19.5C12.375 19.5994 12.4145 19.6948 12.4848 19.7651L13.5453 20.826C13.5799 20.8618 13.6213 20.8904 13.667 20.91C13.7128 20.9297 13.762 20.94 13.8118 20.9405C13.8616 20.9409 13.9109 20.9314 13.957 20.9126C14.0031 20.8937 14.045 20.8659 14.0802 20.8306C14.1154 20.7954 14.1432 20.7536 14.1621 20.7075C14.181 20.6614 14.1904 20.612 14.19 20.5622C14.1896 20.5124 14.1792 20.4632 14.1596 20.4175C14.1399 20.3717 14.1114 20.3303 14.0755 20.2957L13.6552 19.875H15.4754C15.6071 19.875 15.7364 19.8403 15.8504 19.7745C15.9644 19.7087 16.0591 19.614 16.1249 19.5C16.1907 19.386 16.2254 19.2566 16.2254 19.125C16.2254 18.9933 16.1907 18.864 16.1249 18.75L14.9497 16.7145Z" fill="black" fill-opacity="0.7"/>
<path d="M13.6873 16.0477C13.7698 16.0478 13.8501 16.0205 13.9156 15.9703C13.9811 15.92 14.0281 15.8496 14.0495 15.7699L14.4373 14.3209C14.4625 14.225 14.4486 14.123 14.3988 14.0373C14.349 13.9515 14.2673 13.889 14.1715 13.8634C14.0757 13.8377 13.9737 13.8511 13.8877 13.9005C13.8018 13.9499 13.7389 14.0313 13.7128 14.127L13.559 14.7011L12.6493 13.125C12.5834 13.011 12.4888 12.9163 12.3748 12.8505C12.2608 12.7847 12.1314 12.75 11.9998 12.75C11.8681 12.75 11.7388 12.7847 11.6248 12.8505C11.5108 12.9163 11.4161 13.011 11.3503 13.125L10.175 15.1605C10.15 15.2032 10.1337 15.2504 10.127 15.2994C10.1203 15.3483 10.1234 15.3982 10.136 15.446C10.1486 15.4938 10.1706 15.5387 10.2006 15.5779C10.2307 15.6172 10.2682 15.6502 10.311 15.6749C10.3539 15.6996 10.4012 15.7156 10.4502 15.722C10.4992 15.7284 10.5491 15.725 10.5968 15.7121C10.6445 15.6991 10.6892 15.6768 10.7283 15.6465C10.7674 15.6162 10.8001 15.5785 10.8245 15.5355L11.9998 13.5L12.9099 15.075L12.3358 14.9212C12.2882 14.9085 12.2386 14.9052 12.1898 14.9117C12.1409 14.9181 12.0938 14.9341 12.0512 14.9587C12.0085 14.9833 11.9711 15.0161 11.9411 15.0551C11.9112 15.0942 11.8892 15.1388 11.8764 15.1864C11.8636 15.2339 11.8604 15.2836 11.8668 15.3324C11.8732 15.3812 11.8892 15.4283 11.9138 15.471C11.9384 15.5136 11.9712 15.551 12.0103 15.581C12.0494 15.611 12.094 15.633 12.1415 15.6457L13.5902 16.0339C13.6218 16.0428 13.6544 16.0474 13.6873 16.0477Z" fill="black" fill-opacity="0.7"/>
<path d="M23.2087 5.45625L21.1688 1.3725C21.0755 1.18491 20.9316 1.02718 20.7533 0.917164C20.575 0.807147 20.3695 0.749241 20.16 0.75H3.84C3.63051 0.749241 3.42499 0.807147 3.24671 0.917164C3.06843 1.02718 2.92451 1.18491 2.83125 1.3725L0.79125 5.45625C0.764481 5.5085 0.750352 5.5663 0.75 5.625V22.125C0.75089 22.4231 0.869703 22.7087 1.08049 22.9195C1.29127 23.1303 1.57691 23.2491 1.875 23.25H22.125C22.4231 23.2491 22.7087 23.1303 22.9195 22.9195C23.1303 22.7087 23.2491 22.4231 23.25 22.125V5.625C23.2496 5.5663 23.2355 5.5085 23.2087 5.45625ZM20.16 1.5C20.2299 1.49951 20.2985 1.51857 20.3582 1.55501C20.4178 1.59145 20.4661 1.64384 20.4975 1.70625L22.2675 5.25H14.5687L13.9425 1.5H20.16ZM10.8188 1.5H13.1813L13.8075 5.25H10.1925L10.8188 1.5ZM10.125 6H13.875V10.17L12.225 9.06375C12.1638 9.02162 12.0912 8.99906 12.0169 8.99906C11.9425 8.99906 11.87 9.02162 11.8088 9.06375L10.125 10.1775V6ZM3.5025 1.70625C3.53395 1.64384 3.58221 1.59145 3.64185 1.55501C3.70148 1.51857 3.77011 1.49951 3.84 1.5H10.0575L9.43125 5.25H1.7325L3.5025 1.70625ZM22.5 22.125C22.5 22.2245 22.4605 22.3198 22.3902 22.3902C22.3198 22.4605 22.2245 22.5 22.125 22.5H1.875C1.77554 22.5 1.68016 22.4605 1.60984 22.3902C1.53951 22.3198 1.5 22.2245 1.5 22.125V6H9.375V10.875C9.37452 10.943 9.39282 11.0098 9.42789 11.068C9.46296 11.1262 9.51344 11.1736 9.57375 11.205C9.63285 11.2381 9.70006 11.2538 9.76769 11.2505C9.83532 11.2472 9.90066 11.2249 9.95625 11.1862L12.0112 9.825L14.04 11.1862C14.1023 11.2275 14.1753 11.2497 14.25 11.25C14.3116 11.2497 14.3721 11.2342 14.4263 11.205C14.4866 11.1736 14.537 11.1262 14.5721 11.068C14.6072 11.0098 14.6255 10.943 14.625 10.875V6H22.5V22.125Z" fill="black" fill-opacity="0.7"/>
</g>
<defs>
<clipPath id="clip0_54_196">
<rect width="24" height="24" fill="white"/>
</clipPath>
</defs>
</svg>
