<svg width="44" height="44" viewBox="0 0 44 44" fill="none" xmlns="http://www.w3.org/2000/svg">
<circle cx="22" cy="22" r="22" fill="#EBEFF8"/>
<path d="M25.1239 20.4381C30.3739 17.2706 28.217 9.16813 22.0002 9.10251C15.7833 9.16813 13.622 17.2794 18.8808 20.4425C16.4544 21.1263 14.3174 22.5832 12.7942 24.5919C11.2711 26.6007 10.445 29.0516 10.4414 31.5725C10.4414 35.5669 12.6683 35.4138 15.8883 33.8825C20.5652 31.695 23.457 31.7169 28.1383 33.8825C31.0827 35.2781 33.6202 35.7638 33.5808 31.5725C33.5764 29.0488 32.7479 26.5955 31.2214 24.5857C29.695 22.5759 27.5539 21.1196 25.1239 20.4381ZM17.2095 15.1881C17.2199 13.9224 17.7285 12.7117 18.6252 11.8183C19.5218 10.9249 20.7344 10.4207 22.0002 10.415C28.357 10.6775 28.3527 19.7338 22.0002 19.9963C20.7314 19.9905 19.5162 19.4839 18.619 18.5868C17.7219 17.6896 17.2153 16.4744 17.2095 15.2056V15.1881ZM31.7958 33.5063C31.3189 33.8213 29.9583 33.2394 28.6414 32.675C26.8039 31.8919 24.5202 30.925 22.0045 30.925C19.4889 30.925 17.192 31.9006 15.372 32.675C14.0595 33.2394 12.6902 33.8213 12.2177 33.5063C12.0427 33.3925 11.7539 32.99 11.7539 31.5725C11.7539 28.8539 12.8339 26.2466 14.7562 24.3242C16.6786 22.4019 19.2859 21.3219 22.0045 21.3219C24.7232 21.3219 27.3305 22.4019 29.2528 24.3242C31.1752 26.2466 32.2552 28.8539 32.2552 31.5725C32.2552 32.99 31.9708 33.375 31.7958 33.5063Z" fill="black"/>
</svg>
