<svg width="16" height="16" viewBox="0 0 16 16" fill="none" xmlns="http://www.w3.org/2000/svg">
<path d="M8 1.5L10.4999 5.00003L14.4999 6.00003L12.5 10L11.9999 14L10 14L8 13L4 14.5V10L1.5 6.5L5.5 5.00003L8 1.5Z" fill="#8BCB7B"/>
<g clip-path="url(#clip0_54_479)">
<path d="M14.8533 7.83333C15.0694 7.61242 15.2208 7.33662 15.2914 7.03578C15.3619 6.73495 15.3487 6.42056 15.2533 6.12666C15.1654 5.8345 14.9967 5.57313 14.7667 5.37262C14.5367 5.17212 14.2548 5.04064 13.9533 4.99333L10.9933 4.55333C10.9415 4.54579 10.8923 4.52537 10.8504 4.49392C10.8085 4.46247 10.7751 4.42101 10.7533 4.37333L9.42 1.59333C9.29454 1.32087 9.09471 1.08935 8.84351 0.925421C8.5923 0.761489 8.29992 0.671798 8 0.666665C7.69444 0.665686 7.39515 0.753333 7.13838 0.918988C6.88162 1.08464 6.6784 1.3212 6.55334 1.6L5.22 4.38666C5.19877 4.43471 5.16554 4.4765 5.12352 4.50802C5.08149 4.53953 5.03207 4.55973 4.98 4.56666L2.02667 5.02666C1.72557 5.07286 1.44391 5.20404 1.2148 5.40481C0.985696 5.60557 0.818663 5.86757 0.733337 6.16C0.638042 6.4544 0.625576 6.76935 0.697303 7.07037C0.76903 7.37139 0.922184 7.64687 1.14 7.86666L3.33334 10.0333C3.37078 10.0701 3.3988 10.1154 3.41505 10.1653C3.4313 10.2152 3.43528 10.2682 3.42667 10.32L2.92667 13.3867C2.87749 13.6929 2.9137 14.0067 3.03132 14.2937C3.14893 14.5807 3.3434 14.8297 3.59334 15.0133C3.86069 15.2199 4.1888 15.3324 4.52667 15.3333C4.78986 15.3318 5.04862 15.2654 5.28 15.14L7.94667 13.6867C7.99228 13.6603 8.04401 13.6465 8.09667 13.6465C8.14933 13.6465 8.20106 13.6603 8.24667 13.6867L10.9133 15.1267C11.1773 15.2698 11.4771 15.3335 11.7764 15.3098C12.0758 15.2861 12.3618 15.1762 12.6 14.9933C12.8499 14.8081 13.0442 14.5579 13.1618 14.2699C13.2793 13.9819 13.3156 13.6672 13.2667 13.36L12.7533 10.3C12.7439 10.2477 12.7468 10.194 12.7618 10.143C12.7769 10.0921 12.8036 10.0454 12.84 10.0067L14.8533 7.83333ZM11.8133 9.05333C11.6236 9.24424 11.4814 9.47699 11.398 9.73288C11.3147 9.98877 11.2925 10.2607 11.3333 10.5267L11.8467 13.5933C11.859 13.6526 11.8542 13.7141 11.833 13.7707C11.8117 13.8273 11.7749 13.8768 11.7267 13.9133C11.677 13.9455 11.6191 13.9626 11.56 13.9626C11.5009 13.9626 11.443 13.9455 11.3933 13.9133L8.72667 12.4733C8.49761 12.3485 8.24089 12.283 7.98 12.283C7.71912 12.283 7.4624 12.3485 7.23334 12.4733L4.56667 13.9267C4.51702 13.9588 4.45914 13.9759 4.4 13.9759C4.34086 13.9759 4.28298 13.9588 4.23334 13.9267C4.1833 13.8915 4.14464 13.8425 4.12214 13.7856C4.09963 13.7288 4.09425 13.6665 4.10667 13.6067L4.66667 10.5467C4.71007 10.2822 4.69108 10.0113 4.61121 9.7555C4.53135 9.4997 4.39282 9.2661 4.20667 9.07333L2.05334 6.90666C2.01494 6.86123 1.98967 6.80617 1.98028 6.74742C1.97088 6.68868 1.9777 6.62848 2 6.57333C2.01717 6.51466 2.05077 6.46214 2.09685 6.42197C2.14293 6.3818 2.19954 6.35567 2.26 6.34667L5.21334 5.89333C5.46823 5.84743 5.70817 5.74033 5.91254 5.58124C6.11692 5.42215 6.27962 5.21583 6.38667 4.98L7.72 2.18666C7.7434 2.13164 7.78236 2.08466 7.83211 2.05149C7.88186 2.01833 7.94022 2.00043 8 2C8.06018 1.99856 8.11944 2.01486 8.17042 2.04686C8.2214 2.07887 8.26183 2.12517 8.28667 2.18L9.62 4.96666C9.73244 5.20438 9.90106 5.41115 10.1113 5.56911C10.3215 5.72708 10.5671 5.83149 10.8267 5.87333L13.7867 6.31333C13.846 6.32059 13.9018 6.34541 13.947 6.3846C13.9921 6.4238 14.0245 6.47559 14.04 6.53333C14.061 6.59166 14.0647 6.65485 14.0505 6.71521C14.0363 6.77557 14.0048 6.8305 13.96 6.87333L11.8133 9.05333Z" fill="black"/>
</g>
<defs>
<clipPath id="clip0_54_479">
<rect width="16" height="16" fill="white"/>
</clipPath>
</defs>
</svg>
