<svg width="18" height="18" viewBox="0 0 18 18" fill="none" xmlns="http://www.w3.org/2000/svg">
<g clip-path="url(#clip0_96_35)">
<path fill-rule="evenodd" clip-rule="evenodd" d="M13.6754 18H4.32373C3.33643 18 2.53223 17.1958 2.53223 16.2085V3.10407C2.53223 2.98689 2.62599 2.89313 2.74316 2.89313H15.2543C15.37 2.89313 15.4653 2.98689 15.4653 3.10407V16.2086C15.4668 17.1959 14.6626 18.0001 13.6753 18.0001L13.6754 18ZM2.95421 3.315V16.2086C2.95421 16.9645 3.56793 17.5782 4.32383 17.5782H13.6754C14.4313 17.5782 15.045 16.9645 15.045 16.2086V3.31511H2.95421V3.315Z" fill="#0071E3"/>
<path fill-rule="evenodd" clip-rule="evenodd" d="M5.9863 15.564C5.58931 15.564 5.26562 15.2403 5.26562 14.8433V6.0513C5.26562 5.65431 5.58931 5.33063 5.9863 5.33063C6.38476 5.33063 6.70697 5.65431 6.70697 6.0513V14.8418C6.70844 15.2403 6.38465 15.564 5.9863 15.564ZM5.9863 5.75103C5.82081 5.75103 5.6875 5.88582 5.6875 6.04982V14.8404C5.6875 15.234 6.2852 15.2334 6.2852 14.8404V6.0513C6.28667 5.88582 6.15188 5.75103 5.9864 5.75103H5.9863Z" fill="#0071E3"/>
<path fill-rule="evenodd" clip-rule="evenodd" d="M8.99997 15.564C8.60309 15.564 8.2793 15.2403 8.2793 14.8433V6.0513C8.2793 5.65431 8.60298 5.33063 8.99997 5.33063C9.39843 5.33063 9.72064 5.65431 9.72064 6.0513V14.8418C9.72064 15.2403 9.39832 15.564 8.99997 15.564ZM8.99997 5.75103C8.83449 5.75103 8.70117 5.88582 8.70117 6.04982V14.8404C8.70117 15.234 9.29887 15.2334 9.29887 14.8404V6.0513C9.29887 5.88582 9.16555 5.75103 9.00007 5.75103H8.99997Z" fill="#0071E3"/>
<path fill-rule="evenodd" clip-rule="evenodd" d="M12.0127 15.564C11.6157 15.564 11.292 15.2403 11.292 14.8433V6.0513C11.292 5.65431 11.6157 5.33063 12.0127 5.33063C12.4096 5.33063 12.7333 5.65431 12.7333 6.0513V14.8418C12.7333 15.2403 12.4095 15.564 12.0126 15.564H12.0127ZM12.0127 5.75103C11.8472 5.75103 11.7139 5.88582 11.7139 6.04982V14.8404C11.7139 15.2343 12.3116 15.2327 12.3116 14.8404V6.0513C12.3116 5.88582 12.1768 5.75103 12.0128 5.75103H12.0127Z" fill="#0071E3"/>
<path fill-rule="evenodd" clip-rule="evenodd" d="M16.8056 3.31499H1.19336C1.07618 3.31499 0.982422 3.22122 0.982422 3.10405V1.83989C0.982422 1.62305 1.15972 1.44586 1.37645 1.44586H16.6225C16.8394 1.44586 17.0166 1.62316 17.0166 1.83989V3.10405C17.0166 3.22122 16.9213 3.31499 16.8056 3.31499ZM1.4043 2.89311H16.5947V1.86774H1.4043V2.89311Z" fill="#0071E3"/>
<path fill-rule="evenodd" clip-rule="evenodd" d="M11.0429 1.86912H6.95606C6.83888 1.86912 6.74512 1.77536 6.74512 1.65819V0.394033C6.74512 0.177188 6.92241 0 7.13915 0H10.8613C11.0781 0 11.2553 0.177294 11.2553 0.394033V1.65819C11.2538 1.77389 11.1601 1.86912 11.0429 1.86912ZM7.16699 1.44725H10.8334V0.421877H7.16699V1.44725Z" fill="#0071E3"/>
</g>
<defs>
<clipPath id="clip0_96_35">
<rect width="18" height="18" fill="white"/>
</clipPath>
</defs>
</svg>
