<svg width="22" height="22" viewBox="0 0 22 22" fill="none" xmlns="http://www.w3.org/2000/svg">
<g id="1600254081683957324 1" clip-path="url(#clip0_85_52)">
<g id="Layer_x0020_1">
<path id="Vector" fill-rule="evenodd" clip-rule="evenodd" d="M14.3187 15.9941H7.66842C7.23023 15.9941 7.23023 15.324 7.66842 15.324H14.3187C14.7569 15.324 14.7569 15.9941 14.3187 15.9941ZM0.335091 17.1798C0.115993 17.1798 -0.0386643 16.9736 0.0128881 16.7545C0.103105 16.4195 0.644405 14.2929 0.721734 14.164C0.799063 14.0223 0.95372 13.9707 1.09549 14.0094L3.60867 14.6796C4.03398 14.7955 3.86643 15.44 3.44112 15.324L1.54657 14.8084C3.09315 18.6878 6.84359 21.2525 11.0709 21.2525C16.7288 21.2525 21.3298 16.6514 21.3298 10.9936C21.3298 10.5554 21.9871 10.5554 21.9871 10.9936C22 17.0252 17.0896 21.9227 11.0709 21.9227C6.68893 21.9227 2.79672 19.3451 1.06971 15.4013L0.657293 16.9221C0.618629 17.0767 0.47686 17.1798 0.335091 17.1798ZM15.9941 17.3603H5.99297C5.81254 17.3603 5.65788 17.2056 5.65788 17.0252V8.85413H4.92326C4.74282 8.85413 4.60105 8.69947 4.60105 8.51904V6.44406C4.60105 6.26362 4.74282 6.10897 4.92326 6.10897H8.22261V4.97481C8.22261 4.78149 8.37727 4.63972 8.5577 4.63972H13.4423C13.6227 4.63972 13.7774 4.78149 13.7774 4.97481V6.10897H17.0639C17.2572 6.10897 17.3989 6.26362 17.3989 6.44406V8.51904C17.3989 8.69947 17.2572 8.85413 17.0639 8.85413H16.3292V17.0252C16.3292 17.2056 16.1875 17.3603 15.9941 17.3603ZM6.32806 16.6901H15.6719V8.85413H12.7077V12.7721C12.7077 13.0685 12.3597 13.2103 12.1406 13.017L10.9807 11.9344L9.8594 13.017C9.64031 13.2103 9.29233 13.0685 9.29233 12.7721V8.85413H6.32806V16.6901ZM11.1998 11.2255L12.0375 12.0117V8.85413H9.96251V11.9859L10.7487 11.2255C10.8647 11.1096 11.0709 11.1096 11.1998 11.2255ZM5.25835 8.18395H16.7288V6.77915H5.25835V8.18395ZM8.89279 6.10897H13.1072V5.3099H8.89279V6.10897ZM0 10.9936C0 4.97481 4.89748 0.0773315 10.9291 0.0773315C15.2982 0.0773315 19.2033 2.65495 20.9303 6.59871L21.3427 5.06503C21.4587 4.63972 22.0902 4.82015 21.9871 5.24546L21.304 7.75864C21.2654 7.93908 21.0849 8.04218 20.9045 7.99063L18.3913 7.32045C17.966 7.20445 18.1336 6.56005 18.5589 6.67604L20.4534 7.17868C18.9069 3.29936 15.1564 0.734625 10.9291 0.734625C5.27124 0.734625 0.670182 5.33568 0.670182 10.9936C0.670182 11.4318 0 11.4318 0 10.9936ZM14.3187 14.4733H7.66842C7.23023 14.4733 7.23023 13.8032 7.66842 13.8032H14.3187C14.7569 13.8032 14.7569 14.4733 14.3187 14.4733Z" fill="black"/>
</g>
</g>
<defs>
<clipPath id="clip0_85_52">
<rect width="22" height="22" fill="white"/>
</clipPath>
</defs>
</svg>
