<svg width="18" height="18" viewBox="0 0 18 18" fill="none" xmlns="http://www.w3.org/2000/svg">
<path d="M16.4475 4.815L9.135 0.877504C9.0943 0.855837 9.04891 0.844505 9.00281 0.844505C8.95672 0.844505 8.91132 0.855837 8.87063 0.877504L1.55813 4.815C1.51269 4.83854 1.47454 4.87403 1.44778 4.91763C1.42101 4.96125 1.40666 5.01134 1.40625 5.0625V12.9375C1.40639 12.9884 1.42032 13.0383 1.44657 13.0819C1.47282 13.1254 1.5104 13.1611 1.55531 13.185L8.86781 17.1225C8.90851 17.1442 8.9539 17.1555 9 17.1555C9.0461 17.1555 9.09149 17.1442 9.13219 17.1225L16.4447 13.185C16.4896 13.1611 16.5272 13.1254 16.5534 13.0819C16.5797 13.0383 16.5936 12.9884 16.5938 12.9375V5.0625C16.5939 5.0119 16.5804 4.9622 16.5546 4.91867C16.5289 4.8751 16.4919 4.8393 16.4475 4.815ZM9 1.44563L15.7219 5.0625L13.7531 6.12281L7.26469 2.37938L9 1.44563ZM2.27813 5.0625L4.39594 3.9375L10.8816 7.66687L9 8.67937L2.27813 5.0625ZM6.6825 2.69157L13.1709 6.435L11.4638 7.35469L4.97813 3.60844L6.6825 2.69157ZM11.8378 7.79062L13.3678 6.96937V9.0675L12.7772 8.4825C12.7444 8.4499 12.704 8.42591 12.6597 8.41261C12.6154 8.39933 12.5685 8.39719 12.5232 8.40636C12.4778 8.41556 12.4354 8.43578 12.3998 8.46523C12.3641 8.4947 12.3363 8.5325 12.3188 8.57531L11.8378 9.73406V7.79062ZM1.96875 5.53219L8.71875 9.16875V16.4053L1.96875 12.7687V5.53219ZM9.28125 16.4053V9.16875L11.2753 8.09437V11.1487C11.2786 11.2117 11.3029 11.2718 11.3444 11.3193C11.3859 11.3668 11.4421 11.3989 11.5041 11.4106C11.5661 11.4223 11.6302 11.4128 11.6861 11.3837C11.742 11.3545 11.7865 11.3075 11.8125 11.25L12.6731 9.17156L13.4438 9.93656C13.4831 9.97624 13.5334 10.0033 13.5881 10.0143C13.6429 10.0253 13.6997 10.0197 13.7513 9.99827C13.8029 9.97684 13.8469 9.94055 13.8778 9.89398C13.9087 9.84743 13.925 9.79273 13.9247 9.73687V6.66562L16.0284 5.54062V12.7687L9.28125 16.4053Z" fill="black"/>
</svg>
