<svg width="120" height="117" viewBox="0 0 120 117" fill="none" xmlns="http://www.w3.org/2000/svg">
<g filter="url(#filter0_d_115_2)">
<path d="M48.5226 10.6518L46.309 41.2862L17.2604 31.198L39.3924 54.5858L9.93187 68.2899L43.2316 67.791L31.2946 98.3038L53.6499 76.3877L67.9546 103.568L68.1035 73.3649L97.3679 84.4855L76.2683 60.8819L104.912 48.4261L73.2456 46.4283L83.3338 17.3798L60.7625 38.2635L48.5226 10.6518Z" fill="#FFCFE6"/>
<path d="M50.8265 11.445L49.419 42.127L20.1152 32.806L42.8545 55.6038L13.7644 70.0777L47.0396 68.7035L35.9088 99.5196L57.6802 77.0233L72.6946 103.818L72.0493 73.6216L101.596 83.9689L79.8832 60.9282L108.19 47.7236L76.4815 46.5591L85.8024 17.2554L63.788 38.7253L50.8265 11.445Z" stroke="#D0B7EC"/>
<circle cx="61" cy="57" r="6" fill="white"/>
</g>
<defs>
<filter id="filter0_d_115_2" x="5.93164" y="10.6518" width="106.47" height="101.41" filterUnits="userSpaceOnUse" color-interpolation-filters="sRGB">
<feFlood flood-opacity="0" result="BackgroundImageFix"/>
<feColorMatrix in="SourceAlpha" type="matrix" values="0 0 0 0 0 0 0 0 0 0 0 0 0 0 0 0 0 0 127 0" result="hardAlpha"/>
<feOffset dy="4"/>
<feGaussianBlur stdDeviation="2"/>
<feComposite in2="hardAlpha" operator="out"/>
<feColorMatrix type="matrix" values="0 0 0 0 0 0 0 0 0 0 0 0 0 0 0 0 0 0 0.25 0"/>
<feBlend mode="normal" in2="BackgroundImageFix" result="effect1_dropShadow_115_2"/>
<feBlend mode="normal" in="SourceGraphic" in2="effect1_dropShadow_115_2" result="shape"/>
</filter>
</defs>
</svg>
